<svg width="25" height="24" viewBox="0 0 25 24" fill="none" xmlns="http://www.w3.org/2000/svg">
<path d="M21.3 1H3.7C2.49 1 1.5 1.99073 1.5 3.2V20.8C1.5 22.0085 2.49 23 3.7 23H21.3C22.51 23 23.5 22.0085 23.5 20.8V3.2C23.5 1.99073 22.51 1 21.3 1ZM7.43707 20.3615H4.06667V17.3636H7.43707V20.3615ZM7.43707 16.3582H4.06667V13.3618H7.43707V16.3582ZM7.18333 4.33447C6.6678 4.33447 6.2498 3.9172 6.2498 3.40093C6.2498 2.88467 6.6678 2.46667 7.18333 2.46667C7.69887 2.46667 8.11687 2.88393 8.11687 3.4002C8.11687 3.91647 7.69887 4.33447 7.18333 4.33447ZM11.9346 20.3615H8.56493V17.3636H11.9346V20.3615ZM11.9346 16.3582H8.56493V13.3618H11.9346V16.3582ZM11.9346 12.3579H8.56493V9.36147H11.9346V12.3579ZM11.5665 3.4002C11.5665 2.88393 11.9845 2.46667 12.5 2.46667C13.0155 2.46667 13.4335 2.88393 13.4335 3.4002C13.4335 3.91647 13.0155 4.33373 12.5 4.33373C11.9845 4.33373 11.5665 3.9172 11.5665 3.4002ZM16.4351 16.3582H13.0647V13.3618H16.4358V16.3582H16.4351ZM16.4351 12.3579H13.0647V9.36147H16.4358V12.3579H16.4351ZM16.8831 3.4002C16.8831 2.88393 17.3011 2.46667 17.8167 2.46667C18.3322 2.46667 18.7502 2.88393 18.7502 3.4002C18.7502 3.91647 18.3322 4.33373 17.8167 4.33373C17.3011 4.33373 16.8831 3.9172 16.8831 3.4002ZM20.9333 16.3582H17.5629V13.3618H20.9333V16.3582ZM20.9333 12.3579H17.5629V9.36147H20.9333V12.3579Z" fill="#676C7A"/>
</svg>
